<?xml version="1.0" encoding="utf-8"?>
<!-- Generator: Adobe Illustrator 23.0.1, SVG Export Plug-In . SVG Version: 6.00 Build 0)  -->
<svg version="1.1" id="Calque_1" xmlns="http://www.w3.org/2000/svg" xmlns:xlink="http://www.w3.org/1999/xlink" x="0px" y="0px"
	 viewBox="0 0 600 400" style="enable-background:new 0 0 600 400;" xml:space="preserve">
<style type="text/css">
	.st0{opacity:0.335;}
	.st1{fill:#002641;}
	.st2{fill:#FFFFFF;}
	.st3{fill:#8F3AED;}
	.st4{opacity:0.35;fill:url(#SVGID_1_);}
	.st5{opacity:0.35;fill:url(#SVGID_2_);}
	.st6{opacity:0.3;fill:#FFFFFF;}
	.st7{opacity:0.5;fill:#FFFFFF;}
	.st8{opacity:0.3;}
	.st9{opacity:0.2;fill:#5275A0;}
	.st10{fill:#964BC6;}
	.st11{opacity:0.2238;fill:none;stroke:#5B0B60;stroke-width:0.7555;stroke-miterlimit:10;}
	.st12{fill:none;stroke:#FFFFFF;stroke-width:0.7555;stroke-miterlimit:10;}
	.st13{fill:#FFA31D;}
	.st14{fill:#FFD630;}
	.st15{fill:#AEC1FF;}
	.st16{opacity:0.5;fill:#AEC1FF;}
	.st17{opacity:0.5;}
	.st18{fill:none;stroke:#FFFFFF;stroke-width:0.2645;stroke-miterlimit:10;}
	.st19{fill:#F4F4F4;}
	.st20{fill:#F9921E;}
	.st21{opacity:0.86;fill:#FFFFFF;}
	.st22{opacity:0.8;fill:#FFFFFF;}
	.st23{opacity:0.86;}
	.st24{fill:#E1E8F9;}
	.st25{fill:#A1D7FF;}
	.st26{fill:#6BBFFF;}
	.st27{fill:#FCBE32;}
	.st28{fill:none;stroke:#A8A8A8;stroke-width:0.6647;stroke-miterlimit:10;}
	.st29{fill:none;stroke:#3B2F7C;stroke-width:0.6647;stroke-miterlimit:10;}
	.st30{fill:none;stroke:#3B2F7C;stroke-width:0.6647;stroke-linecap:round;stroke-linejoin:round;stroke-miterlimit:10;}
	.st31{opacity:0.23;}
	.st32{fill:#FFE1BD;}
	.st33{fill:#E8D7FF;}
	.st34{fill:#0A344C;}
	.st35{fill:#E8C5A0;}
	.st36{fill:#16405A;}
	.st37{fill:#103649;}
	.st38{fill:#EAEAEA;}
	.st39{fill:#3A3A3A;}
	.st40{opacity:0.29;fill:url(#SVGID_3_);}
	.st41{fill:#EFCFAC;}
	.st42{fill:#2E95A0;}
	.st43{fill:#53CDD3;}
	.st44{fill:#FFC9A1;}
	.st45{fill:#EF9D18;}
	.st46{opacity:0.2;fill:#392F3D;}
	.st47{opacity:0.29;fill:url(#SVGID_4_);}
	.st48{fill:#FFB41D;}
</style>
<g>
	<g class="st0">
		<path class="st1" d="M1.77,391"/>
	</g>
	<g class="st0">
		<path class="st1" d="M598.03,9.31"/>
	</g>
	<path class="st2" d="M2.77,390.62"/>
	<path class="st2" d="M599.03,8.94"/>
	<path class="st3" d="M599.03,8.94v279.84c-50.98,12.14-115.93,4.29-153.84-24.12c-13.16-9.87-24.4-21.84-40.22-28.71
		c-34.68-15.07-83.85-2.47-112.13-24.62c-24.43-19.15-17.93-52.87-36.17-76.09c-7.91-10.08-18.56-18.74-30.18-26.11
		c-34.36-21.77-37.26-71.05-14.53-100.2H599.03z"/>
	<linearGradient id="SVGID_1_" gradientUnits="userSpaceOnUse" x1="216.4327" y1="142.2664" x2="599.03" y2="142.2664">
		<stop  offset="0" style="stop-color:#C15FA5"/>
		<stop  offset="1" style="stop-color:#F6AECE;stop-opacity:0"/>
	</linearGradient>
	<path class="st4" d="M228.25,8.94c0,0-21.5,26.69-6.5,53.69s34.76,21,51.81,43s-1.65,76.1,18.88,95.77
		c25.97,24.89,57.87-1.23,91.22,3.23c33.35,4.46,70.74,62.41,112.92,69.7c42.17,7.3,102.45-19.27,102.45-19.27V8.94H228.25z"/>
	<linearGradient id="SVGID_2_" gradientUnits="userSpaceOnUse" x1="397.054" y1="84.2208" x2="599.03" y2="84.2208">
		<stop  offset="0" style="stop-color:#C15FA5"/>
		<stop  offset="1" style="stop-color:#F6AECE;stop-opacity:0"/>
	</linearGradient>
	<path class="st5" d="M399.49,8.94c0,0-9.6,24.56,9.33,41.56s58.91-1,84.61,13c25.7,14-31.06,65.52,12.63,87.26
		c43.69,21.74,92.97-3.9,92.97-3.9L598.78,8.94H399.49z"/>
</g>
<g>
	<rect x="344.06" y="77.5" class="st6" width="175.32" height="128.85"/>
	<path class="st7" d="M402.46,160.09h-51.07c-1.81,0-3.28-1.47-3.28-3.28V86.66c0-1.81,1.47-3.28,3.28-3.28h51.07
		c1.81,0,3.28,1.47,3.28,3.28v70.15C405.74,158.62,404.27,160.09,402.46,160.09z"/>
	<g class="st8">
		<g>
			<path class="st2" d="M441.79,171.66l-30.64,0.06c-0.29,0-0.53-0.31-0.53-0.69l0,0c0-0.38,0.24-0.7,0.53-0.7l30.64-0.06
				c0.29,0,0.53,0.31,0.53,0.69v0C442.32,171.35,442.08,171.66,441.79,171.66z"/>
			<path class="st2" d="M441.79,168.6l-30.64,0.06c-0.29,0-0.53-0.31-0.53-0.69l0,0c0-0.38,0.24-0.7,0.53-0.7l30.64-0.06
				c0.29,0,0.53,0.31,0.53,0.69l0,0C442.32,168.29,442.08,168.6,441.79,168.6z"/>
			<path class="st2" d="M441.79,174.72l-30.64,0.06c-0.29,0-0.53-0.31-0.53-0.69l0,0c0-0.38,0.24-0.7,0.53-0.7l30.64-0.06
				c0.29,0,0.53,0.31,0.53,0.69v0C442.32,174.4,442.09,174.72,441.79,174.72z"/>
			<path class="st2" d="M441.8,177.77l-30.64,0.06c-0.29,0-0.53-0.31-0.53-0.69l0,0c0-0.38,0.24-0.7,0.53-0.7l30.64-0.06
				c0.29,0,0.53,0.31,0.53,0.69l0,0C442.33,177.46,442.09,177.77,441.8,177.77z"/>
			<path class="st2" d="M434.56,180.83l-23.4,0.05c-0.29,0-0.53-0.31-0.53-0.69l0,0c0-0.38,0.24-0.7,0.53-0.7l23.4-0.05
				c0.29,0,0.53,0.31,0.53,0.69l0,0C435.09,180.52,434.85,180.83,434.56,180.83z"/>
		</g>
		<g>
			<path class="st2" d="M477.2,171.7l-30.64,0.06c-0.29,0-0.53-0.31-0.53-0.69l0,0c0-0.38,0.24-0.7,0.53-0.7l30.64-0.06
				c0.29,0,0.53,0.31,0.53,0.69v0C477.73,171.39,477.49,171.7,477.2,171.7z"/>
			<path class="st2" d="M477.2,168.65l-30.64,0.06c-0.29,0-0.53-0.31-0.53-0.69l0,0c0-0.38,0.24-0.7,0.53-0.7l30.64-0.06
				c0.29,0,0.53,0.31,0.53,0.69l0,0C477.73,168.33,477.49,168.65,477.2,168.65z"/>
			<path class="st2" d="M477.21,174.76l-30.64,0.06c-0.29,0-0.53-0.31-0.53-0.69l0,0c0-0.38,0.24-0.7,0.53-0.7l30.64-0.06
				c0.29,0,0.53,0.31,0.53,0.69v0C477.74,174.45,477.5,174.76,477.21,174.76z"/>
			<path class="st2" d="M477.21,177.82l-30.64,0.06c-0.29,0-0.53-0.31-0.53-0.69l0,0c0-0.38,0.24-0.7,0.53-0.7l30.64-0.06
				c0.29,0,0.53,0.31,0.53,0.69l0,0C477.74,177.51,477.5,177.82,477.21,177.82z"/>
			<path class="st2" d="M469.97,180.87l-23.4,0.05c-0.29,0-0.53-0.31-0.53-0.69l0,0c0-0.38,0.24-0.7,0.53-0.7l23.4-0.05
				c0.29,0,0.53,0.31,0.53,0.7l0,0C470.5,180.56,470.26,180.87,469.97,180.87z"/>
		</g>
		<g>
			<path class="st2" d="M512.61,171.73l-30.64,0.06c-0.29,0-0.53-0.31-0.53-0.69l0,0c0-0.38,0.24-0.7,0.53-0.7l30.64-0.06
				c0.29,0,0.53,0.31,0.53,0.69l0,0C513.14,171.41,512.91,171.73,512.61,171.73z"/>
			<path class="st2" d="M512.61,168.67l-30.64,0.06c-0.29,0-0.53-0.31-0.53-0.69l0,0c0-0.38,0.24-0.7,0.53-0.7l30.64-0.06
				c0.29,0,0.53,0.31,0.53,0.69l0,0C513.14,168.36,512.9,168.67,512.61,168.67z"/>
			<path class="st2" d="M512.62,174.78l-30.64,0.06c-0.29,0-0.53-0.31-0.53-0.69l0,0c0-0.38,0.24-0.7,0.53-0.7l30.64-0.06
				c0.29,0,0.53,0.31,0.53,0.69v0C513.15,174.47,512.91,174.78,512.62,174.78z"/>
			<path class="st2" d="M512.62,177.84l-30.64,0.06c-0.29,0-0.53-0.31-0.53-0.69v0c0-0.38,0.24-0.7,0.53-0.7l30.64-0.06
				c0.29,0,0.53,0.31,0.53,0.69l0,0C513.15,177.53,512.92,177.84,512.62,177.84z"/>
			<path class="st2" d="M505.38,180.9l-23.4,0.05c-0.29,0-0.53-0.31-0.53-0.69l0,0c0-0.38,0.24-0.7,0.53-0.7l23.4-0.05
				c0.29,0,0.53,0.31,0.53,0.69v0C505.91,180.58,505.67,180.9,505.38,180.9z"/>
		</g>
		<g>
			<path class="st2" d="M358.38,179.88l-9.73,0.02c-0.29,0-0.53-0.31-0.53-0.7l0,0c0-0.38,0.24-0.7,0.53-0.7l9.73-0.02
				c0.29,0,0.53,0.31,0.53,0.69v0C358.91,179.57,358.67,179.88,358.38,179.88z"/>
			<path class="st2" d="M373.24,179.89l-9.73,0.02c-0.29,0-0.53-0.31-0.53-0.69l0,0c0-0.38,0.24-0.7,0.53-0.7l9.73-0.02
				c0.29,0,0.53,0.31,0.53,0.69v0C373.77,179.58,373.53,179.89,373.24,179.89z"/>
			<path class="st2" d="M388.1,179.9l-9.73,0.02c-0.29,0-0.53-0.31-0.53-0.69v0c0-0.38,0.24-0.7,0.53-0.7l9.73-0.02
				c0.29,0,0.53,0.31,0.53,0.69l0,0C388.63,179.59,388.4,179.9,388.1,179.9z"/>
			<path class="st2" d="M402.97,179.91l-9.73,0.02c-0.29,0-0.53-0.31-0.53-0.69l0,0c0-0.38,0.24-0.7,0.53-0.7l9.73-0.02
				c0.29,0,0.53,0.31,0.53,0.69v0C403.5,179.6,403.26,179.91,402.97,179.91z"/>
		</g>
	</g>
	<g>
		<path class="st9" d="M513.46,156.06L513.46,156.06c0,1.35-1.02,2.43-2.27,2.44l-60.29,0.13l-33.93,0.08
			c-1.26,0-2.28-1.08-2.28-2.43l-0.13-66.69c0-1.34,1.01-2.43,2.27-2.44l94.22-0.21c1.26,0,2.28,1.08,2.28,2.43l0.01,2.6
			L513.46,156.06z"/>
		<path class="st10" d="M510.31,152.23L510.31,152.23c0,1.35-1.02,2.43-2.27,2.44l-60.29,0.13l-33.93,0.08
			c-1.26,0-2.28-1.08-2.28-2.43l-0.13-66.69c0-1.34,1.01-2.43,2.27-2.44l94.22-0.21c1.26,0,2.28,1.08,2.28,2.43l0.01,2.6
			L510.31,152.23z"/>
		<path class="st7" d="M418.27,123.58c0,0,5.25-16.29,17.88-15.32c12.62,0.97,15.68,30.47,25.15,30.8
			c9.47,0.33,10.07-32.67,19.69-36c9.62-3.33,11.82,29.5,14.05,31.67s3.56-23,8.73-24.33l0.18,38.47h-85.74L418.27,123.58z"/>
		<path class="st11" d="M423.27,115.59c3.36,1.67,5.46,5.11,7.04,8.52c1.58,3.41,2.89,7.04,5.41,9.84
			c2.51,2.79,6.68,4.54,10.09,2.97c3.01-1.39,4.45-4.79,5.54-7.92c3.16-9.14,5.92-32.25,13.3-32.25c11.9,0,12.59,20.3,18.65,29.8
			c1.19,1.86,3.44,6.82,7.83,6.77c6.19-0.06,9.88-8.6,13.07-15.61"/>
		<polyline class="st11" points="503.95,148.86 418.21,148.86 418.21,91.07 		"/>
		<line class="st12" x1="489.79" y1="90.11" x2="502.08" y2="90.11"/>
		<line class="st12" x1="489.79" y1="92.14" x2="502.08" y2="92.14"/>
		<line class="st12" x1="489.79" y1="94.16" x2="502.08" y2="94.16"/>
		<line class="st12" x1="481.83" y1="90.11" x2="487.4" y2="90.11"/>
		<line class="st12" x1="481.83" y1="92.14" x2="487.4" y2="92.14"/>
		<line class="st12" x1="481.83" y1="94.16" x2="487.4" y2="94.16"/>
		<g>
			<circle class="st2" cx="423.27" cy="115.3" r="0.66"/>
			<path class="st2" d="M434.21,131.02c0,0.36-0.29,0.66-0.66,0.66s-0.66-0.29-0.66-0.66c0-0.36,0.29-0.66,0.66-0.66
				S434.21,130.65,434.21,131.02z"/>
			<path class="st2" d="M504.86,117.88c0,0.36-0.29,0.66-0.66,0.66c-0.36,0-0.66-0.29-0.66-0.66c0-0.36,0.29-0.66,0.66-0.66
				C504.56,117.22,504.86,117.51,504.86,117.88z"/>
		</g>
	</g>
	<g>
		<path class="st13" d="M536.61,182.73h-23.46V168.4c0-1.12,0.91-2.03,2.03-2.03h8.84c0.22,0,0.44,0.08,0.61,0.22l2.15,1.81
			c0.18,0.15,0.41,0.24,0.65,0.24h7.14c1.12,0,2.03,0.91,2.03,2.03V182.73z"/>
		<path class="st2" d="M534.19,180.73h-18.33c-0.66,0-1.2-0.54-1.2-1.2v-8.9c0-0.66,0.54-1.2,1.2-1.2h18.33c0.66,0,1.2,0.54,1.2,1.2
			v8.9C535.4,180.19,534.86,180.73,534.19,180.73z"/>
		<path class="st14" d="M534.34,186.56h-18.93c-1.25,0-2.27-1.01-2.27-2.27v-10.31c0-1.25,1.01-2.27,2.27-2.27h18.93
			c1.25,0,2.27,1.01,2.27,2.27v10.31C536.61,185.54,535.59,186.56,534.34,186.56z"/>
	</g>
	<g>
		<path class="st2" d="M549.02,198.49v26.07c0,1.06-0.86,1.92-1.92,1.92h-58.61c-1.07,0-1.92-0.86-1.92-1.92v-26.07
			c0-1.06,0.86-1.92,1.92-1.92h58.61C548.16,196.57,549.02,197.43,549.02,198.49z"/>
		<path class="st15" d="M549.02,198.49v3.75h-62.45v-3.75c0-1.06,0.86-1.92,1.92-1.92h58.61
			C548.16,196.57,549.02,197.43,549.02,198.49z"/>
		<path class="st16" d="M546.56,205.39v17.99h-57.64v-5.75c2.33-3.19,5.5-5.31,12.78-1.01c6.99,4.13,6.97-9.17,14.95-8.48
			c7.98,0.69,10.11,12.61,16.3,3.5C539.15,202.53,546.56,205.39,546.56,205.39z"/>
		<rect x="488.92" y="205.28" class="st16" width="11.35" height="0.77"/>
		<rect x="488.92" y="206.66" class="st16" width="19.19" height="0.77"/>
		<rect x="488.92" y="208.03" class="st16" width="14.41" height="0.77"/>
		<rect x="488.92" y="209.41" class="st16" width="17.39" height="0.77"/>
		<rect x="488.92" y="210.78" class="st16" width="11.35" height="0.77"/>
	</g>
	<g class="st17">
		<rect x="349.51" y="188.03" class="st2" width="18.86" height="12.76"/>
		<rect x="348.57" y="187.28" class="st18" width="20.67" height="14.25"/>
		<polygon class="st19" points="368.36,188.03 368.36,200.79 358.93,194.41 349.5,188.03 		"/>
		<polygon class="st20" points="368.36,188.03 358.93,194.41 349.5,188.03 		"/>
	</g>
	<g>
		<g>
			<path class="st2" d="M310.33,75.46c-1.57,2.25-2.49,4.98-2.49,7.93c0,1.58,0.26,3.1,0.75,4.51l13.14-4.51L310.33,75.46z"/>
			<path class="st21" d="M323.72,68.21V82.1l10.22,9.41c2.28-2.47,3.68-5.78,3.68-9.41C337.62,74.43,331.39,68.21,323.72,68.21z"/>
			<path class="st7" d="M321.73,69.49c-4.73,0-8.9,2.36-11.4,5.96l11.4,7.93V69.49z"/>
			<path class="st7" d="M319.15,97.03c0.84,0.16,1.7,0.24,2.58,0.24c4.04,0,7.68-1.72,10.22-4.48l-10.22-9.41L319.15,97.03z"/>
			<path class="st22" d="M308.59,87.9c1.6,4.66,5.62,8.21,10.56,9.14l2.58-13.65L308.59,87.9z"/>
		</g>
	</g>
	<g class="st23">
		<path class="st2" d="M551.59,101.46h1.68c0.22,0,0.4-0.18,0.4-0.4v-3.91c0-0.22-0.18-0.4-0.4-0.4h-1.68
			c-0.05-0.21-0.1-0.41-0.16-0.61l1.46-0.84c0.19-0.11,0.26-0.36,0.15-0.55l-1.95-3.38c-0.11-0.19-0.36-0.26-0.55-0.15l-1.46,0.84
			c-0.14-0.15-0.29-0.3-0.45-0.45l0,0l0.84-1.46c0.11-0.19,0.05-0.44-0.15-0.55l-3.38-1.95c-0.19-0.11-0.44-0.05-0.55,0.15
			l-0.84,1.46c-0.2-0.06-0.4-0.12-0.61-0.16c0,0,0,0,0,0v-1.69c0-0.22-0.18-0.4-0.4-0.4h-3.91c-0.22,0-0.4,0.18-0.4,0.4v1.69l0,0
			c-0.21,0.05-0.41,0.1-0.61,0.16l-0.84-1.46c-0.11-0.19-0.36-0.26-0.55-0.15l-3.38,1.95c-0.19,0.11-0.26,0.36-0.15,0.55l0.84,1.46
			c0,0,0,0,0,0c-0.15,0.14-0.3,0.29-0.45,0.45l-1.46-0.84c-0.19-0.11-0.44-0.04-0.55,0.15l-1.95,3.38
			c-0.11,0.19-0.04,0.44,0.15,0.55l1.46,0.84c-0.06,0.2-0.12,0.41-0.16,0.61h-1.68c-0.22,0-0.4,0.18-0.4,0.4v3.91
			c0,0.22,0.18,0.4,0.4,0.4h1.68c0.05,0.21,0.1,0.41,0.16,0.61l0,0l-1.46,0.84c-0.19,0.11-0.26,0.36-0.15,0.55l1.95,3.38
			c0.11,0.19,0.36,0.26,0.55,0.15l1.46-0.84c0.14,0.15,0.29,0.3,0.45,0.45c0,0,0,0,0,0l-0.84,1.46c-0.11,0.19-0.05,0.44,0.15,0.55
			l3.38,1.95c0.19,0.11,0.44,0.04,0.55-0.15l0.84-1.46c0.2,0.06,0.4,0.12,0.61,0.16h0v1.69c0,0.22,0.18,0.4,0.4,0.4h3.91
			c0.22,0,0.4-0.18,0.4-0.4v-1.68c0,0,0,0,0,0c0.21-0.05,0.41-0.1,0.61-0.16l0.84,1.46c0.11,0.19,0.36,0.26,0.55,0.15l3.38-1.95
			c0.19-0.11,0.26-0.36,0.15-0.55l-0.84-1.46l0,0c0.15-0.14,0.3-0.29,0.45-0.45l1.46,0.84c0.19,0.11,0.44,0.04,0.55-0.15l1.95-3.38
			c0.11-0.19,0.05-0.44-0.15-0.55l-1.46-0.84c0,0,0,0,0,0C551.49,101.87,551.54,101.67,551.59,101.46z M542.71,104.71
			c-4,0.8-7.54-2.73-6.73-6.73c0.45-2.25,2.24-4.04,4.49-4.48c3.99-0.79,7.51,2.73,6.72,6.72
			C546.75,102.47,544.96,104.26,542.71,104.71z"/>
	</g>
	<g>
		<rect x="300.6" y="111.4" class="st2" width="33.57" height="23.44"/>
		<rect x="304.3" y="113.98" class="st24" width="26.18" height="18.28"/>
		<polygon class="st25" points="322.91,123.16 315.34,132.27 330.48,132.27 		"/>
		<polygon class="st26" points="314.28,120.25 304.3,132.27 324.27,132.27 		"/>
		<path class="st27" d="M325.22,119.18c0,1.27-1.03,2.31-2.31,2.31c-1.27,0-2.31-1.03-2.31-2.31c0-1.27,1.03-2.31,2.31-2.31
			C324.18,116.88,325.22,117.91,325.22,119.18z"/>
	</g>
	<g>
		<circle class="st2" cx="526.82" cy="115.31" r="1.94"/>
		<path class="st2" d="M535.04,117.31c0.16-0.64,0.24-1.31,0.24-2c0-0.69-0.08-1.36-0.24-2l-2.14,0.42c-0.15-0.57-0.37-1.1-0.66-1.6
			l1.81-1.22c-0.7-1.16-1.68-2.13-2.84-2.84l-1.22,1.81c-0.49-0.29-1.03-0.52-1.6-0.66l0.42-2.14c-0.64-0.16-1.31-0.24-2-0.24
			s-1.36,0.08-2,0.24l0.42,2.14c-0.57,0.15-1.1,0.37-1.6,0.66l-1.22-1.81c-1.16,0.7-2.13,1.68-2.84,2.84l1.81,1.22
			c-0.29,0.49-0.52,1.03-0.66,1.6l-2.14-0.42c-0.16,0.64-0.24,1.31-0.24,2c0,0.69,0.08,1.36,0.24,2l2.14-0.42
			c0.15,0.57,0.37,1.1,0.66,1.6l-1.81,1.22c0.7,1.16,1.68,2.13,2.84,2.83l1.22-1.81c0.49,0.29,1.03,0.52,1.6,0.66l-0.42,2.14
			c0.64,0.16,1.31,0.24,2,0.24s1.36-0.08,2-0.24l-0.42-2.14c0.57-0.15,1.1-0.37,1.6-0.66l1.22,1.81c1.16-0.7,2.13-1.68,2.84-2.83
			l-1.81-1.22c0.29-0.49,0.52-1.03,0.66-1.6L535.04,117.31z M526.82,119.45c-2.29,0-4.14-1.86-4.14-4.14c0-2.29,1.86-4.14,4.14-4.14
			c2.29,0,4.14,1.86,4.14,4.14C530.96,117.6,529.11,119.45,526.82,119.45z"/>
	</g>
	<g>
		<path class="st15" d="M359.36,169.41h-75.25c-1.14,0-2.07-0.93-2.07-2.07v-14.52c0-1.14,0.93-2.07,2.07-2.07h75.25
			c1.14,0,2.07,0.93,2.07,2.07v14.52C361.42,168.48,360.5,169.41,359.36,169.41z"/>
		<g>
			<path class="st2" d="M351.99,163.27h-60.52c-1.76,0-3.18-1.42-3.18-3.18l0,0c0-1.76,1.42-3.18,3.18-3.18h60.52
				c1.76,0,3.18,1.42,3.18,3.18l0,0C355.17,161.84,353.75,163.27,351.99,163.27z"/>
			<circle class="st2" cx="348.12" cy="160.09" r="7.06"/>
			<line class="st28" x1="292.01" y1="158.63" x2="292.01" y2="161.57"/>
			<g>
				<path class="st29" d="M349.97,159.74c0,1.26-1.03,2.29-2.29,2.29c-1.26,0-2.29-1.03-2.29-2.29c0-1.26,1.03-2.29,2.29-2.29
					C348.95,157.44,349.97,158.47,349.97,159.74z"/>
				<line class="st30" x1="350.84" y1="162.73" x2="349.28" y2="161.37"/>
			</g>
		</g>
	</g>
	<g class="st31">
		<path class="st2" d="M368.81,101.67l-16.62,0.06c-0.74,0-1.34-0.98-1.35-2.2l0-0.66c0-1.22,0.6-2.2,1.34-2.2l16.62-0.06
			c0.74,0,1.34,0.98,1.35,2.2l0,0.66C370.15,100.68,369.55,101.66,368.81,101.67z"/>
		<path class="st2" d="M361.68,146.83l-9.49,0.03c-0.74,0-1.34-0.98-1.35-2.2l0-0.66c0-1.22,0.6-2.2,1.34-2.2l9.49-0.03
			c0.74,0,1.34,0.98,1.35,2.2l0,0.66C363.02,145.84,362.42,146.83,361.68,146.83z"/>
		<path class="st2" d="M390.2,110.49l-38.01,0.13c-0.74,0-1.34-0.98-1.35-2.2l0-0.66c0-1.22,0.6-2.2,1.34-2.2l38.01-0.13
			c0.74,0,1.34,0.98,1.35,2.2l0,0.66C391.54,109.5,390.94,110.48,390.2,110.49z"/>
		<g>
			<path class="st2" d="M402.25,123.28l-50.92,0.17c-0.27,0-0.49-0.36-0.49-0.8l0-0.24c0-0.44,0.22-0.8,0.49-0.8l50.92-0.17
				c0.27,0,0.49,0.36,0.49,0.8l0,0.24C402.74,122.92,402.52,123.28,402.25,123.28z"/>
			<path class="st2" d="M402.25,119.23l-50.92,0.17c-0.27,0-0.49-0.36-0.49-0.8l0-0.24c0-0.44,0.22-0.8,0.49-0.8l50.92-0.17
				c0.27,0,0.49,0.36,0.49,0.8l0,0.24C402.74,118.87,402.52,119.23,402.25,119.23z"/>
			<path class="st2" d="M402.25,127.33l-50.92,0.17c-0.27,0-0.49-0.36-0.49-0.8l0-0.24c0-0.44,0.22-0.8,0.49-0.8l50.92-0.17
				c0.27,0,0.49,0.36,0.49,0.8l0,0.24C402.74,126.97,402.52,127.32,402.25,127.33z"/>
			<path class="st2" d="M402.25,131.37l-50.92,0.17c-0.27,0-0.49-0.36-0.49-0.8l0-0.24c0-0.44,0.22-0.8,0.49-0.8l50.92-0.17
				c0.27,0,0.49,0.36,0.49,0.8l0,0.24C402.74,131.01,402.52,131.37,402.25,131.37z"/>
			<path class="st2" d="M390.39,135.44l-39.06,0.13c-0.27,0-0.49-0.36-0.49-0.8l0-0.24c0-0.44,0.22-0.8,0.49-0.8l39.06-0.13
				c0.27,0,0.49,0.36,0.49,0.8l0,0.24C390.88,135.08,390.66,135.44,390.39,135.44z"/>
		</g>
	</g>
	<path class="st2" d="M477.77,165.35h20c1.27,0,2.3-1.03,2.3-2.3v-8.91c0-1.27-1.03-2.3-2.3-2.3h-13.92c-1.27,0-2.3,1.03-2.3,2.3
		V162L477.77,165.35z M494.05,158.6c0-0.81,0.66-1.47,1.48-1.47c0.81,0,1.48,0.66,1.48,1.47s-0.66,1.48-1.48,1.48
		C494.72,160.07,494.05,159.41,494.05,158.6z M488.92,158.6c0-0.81,0.66-1.47,1.48-1.47c0.81,0,1.47,0.66,1.47,1.47
		s-0.66,1.48-1.47,1.48C489.59,160.07,488.92,159.41,488.92,158.6z M483.79,158.6c0-0.81,0.66-1.47,1.47-1.47
		c0.81,0,1.48,0.66,1.48,1.47s-0.66,1.48-1.48,1.48C484.45,160.07,483.79,159.41,483.79,158.6z"/>
</g>
<g>
	<g>
		<path class="st32" d="M413.76,182.44c-0.13,0.62-0.46,1.16-0.9,1.56c-0.49,0.46-1.14,0.75-1.84,0.83
			c-1.82,0.19-3.75-0.11-6.71,0.29c-4.76,0.63-9.65,1.29-11.82,1.51c-1.23,0.12-3.69,0.39-5.05-0.19c-0.04-0.01-0.08-0.02-0.12-0.04
			c-0.01-0.01-0.01-0.01-0.02-0.02c-0.33-0.29-0.34-1.05-0.24-1.82c0.09-0.83,0.31-1.68,0.33-1.89c0.22-2.26,2.09-3.02,3.01-3.24
			c0.3-0.08,11.1-2.34,14.35-2.88c1.57-0.27,2.44,0.18,3.95,0.6c1.03,0.29,2.01,0.74,2.91,1.36
			C413.01,179.48,414.11,180.8,413.76,182.44z"/>
		<path class="st2" d="M413.77,182.45c-0.13,0.62-0.46,1.15-0.91,1.56c-0.48,0.45-1.14,0.75-1.83,0.83
			c-1.82,0.19-3.82-0.39-6.65,0.56c-0.48,0.16-1.04,0.3-1.64,0.42c-1.88,0.35-4.12,0.53-5.58,0.71c-0.16-0.32-0.3-0.65-0.42-0.99
			c-1.09-2.85-1.05-6.24-0.88-7.62c3.02-0.61,8.92-1.77,10.46-2.02c1.57-0.27,0.88,0.82,2.38,1.25c1.03,0.29,2.02,0.73,2.91,1.35
			C413.01,179.48,414.11,180.79,413.77,182.45z"/>
		<path class="st33" d="M402.74,185.82c-1.88,0.35-4.12,0.53-5.58,0.71c-0.16-0.32-0.3-0.65-0.42-0.99c1.55-0.14,3.27-0.5,3.27-0.5
			c0.64-3.93,2.24-5.32,2.24-5.32S402.54,183.25,402.74,185.82z"/>
		<path class="st32" d="M391.89,184.58c-0.12,0.33-0.28,0.61-0.46,0.84c-0.09,0.11-0.18,0.21-0.27,0.3
			c-1.16,1.12-2.97,0.91-3.3,0.86h-0.01c-0.13-0.04-0.26-0.09-0.41-0.14c-0.04-0.02-0.09-0.04-0.14-0.06
			c-2.86-1.21-17.18-12.41-17.18-12.41l0.2-0.31l1.33-1.96c0,0,9.33,4.15,13.68,5.67c1.9,0.66,3.77,1.27,5.06,2.06
			c0.17,0.1,0.32,0.2,0.47,0.31C390.87,179.74,392.82,181.97,391.89,184.58z"/>
	</g>
	<g>
		<path class="st2" d="M422.74,202.9c-0.88,2.29-1.09,4.79-0.56,7.19c1.06,4.77-0.15,5.09-0.15,5.09s-6.46,4.1-11.83,5.78
			c-3.85,1.2-7.13,1-7.04-3.26l0-0.06c0.01-0.26,0.01-0.51,0.02-0.75c0.18-9.56-1.81-10.04-2.3-20.74
			c-0.51-10.98-0.4-17.48,3.12-19.25c3.83-1.93,9.1-3.26,16.57-1.49c5.61,1.32,7.46,2.81,7.42,6.97c-0.02,1.38-0.24,3.06-0.6,5.11
			C426.46,192.72,424.25,199,422.74,202.9z"/>
		<path class="st33" d="M422.74,202.9c-0.88,2.29-1.09,4.79-0.56,7.19c1.06,4.77-0.15,5.09-0.15,5.09s-6.46,4.1-11.83,5.78
			l-5.02-0.48l-2.01-1.58l-0.01-1.26c0.01-0.26,0.01-0.51,0.02-0.75c1.15,0.11,3.76,0.24,7.58-0.2c2.96-0.34,5.64-1.18,7.43-1.86
			c1.31-0.49,2.07-1.84,1.83-3.22c-0.33-1.88-0.71-4.57-0.7-6.67c0.02-2.1,0.99-5.66,1.79-8.22c0.61-1.97,0.82-4.03,0.67-6.08
			c-0.25-3.55,0.01-6.93,0.01-6.93l3.98-2.16l2.22,0.83c-0.02,1.38-0.24,3.06-0.6,5.11C426.46,192.72,424.25,199,422.74,202.9z"/>
		<g>
			<path class="st34" d="M405.74,159.26c0,0-2.5-2.75-2.13-6.69c0.21-2.3,0.92-4.59,4.38-5.38c3.63-0.83,8.44,3.27,8.44,3.27
				s5.83,0.5,6.27,9.18l-7.06-1.57L405.74,159.26z"/>
			<path class="st32" d="M421.42,162.28c-0.14,5.38-4.78,8.5-4.78,8.5l0.31,4.9l-3.13,2.03l-2.15,1.39l-1.23-2.58l-0.17-3.16
				c-0.04-0.73-0.57-1.35-1.29-1.5c-0.8-0.17-1.91-0.64-3.05-1.85c-0.07-0.07-0.14-0.15-0.19-0.24c-0.01,0-0.01,0-0.01,0
				c-2.03-2.77-2.8-13.39,4.16-16.4C417.08,150.25,421.56,156.89,421.42,162.28z"/>
			<path class="st35" d="M413.62,174.76l0.21,2.94l-2.15,1.39l-1.23-2.58l-0.17-3.16c-0.04-0.73-0.57-1.35-1.29-1.5
				c-0.8-0.17-1.91-0.64-3.05-1.85c-0.07-0.07-0.14-0.15-0.19-0.24c0.14,0.08,1.82,1.07,4.38,1.35
				C412.01,171.34,413.48,172.87,413.62,174.76z"/>
			<path class="st34" d="M413.91,163.94c0.27,0.11,0.53-0.31,0.53-0.31s1.51-3.39,2.03-3.91c0.93-0.94,3.12-0.85,3.29,2.05
				c0.14,2.25-2.52,7.05-3.34,8.46c-0.12,0.22-0.07,0.52,0.14,0.68c0.09,0.06,0.2,0.1,0.3,0.11h0.04c0.12,0,0.25-0.04,0.35-0.12
				c1.72-1.51,9.29-8.77,3.28-15.6c0,0-4.78,0.31-5.51,2.61c-0.73,2.31-1.25,5.43-1.25,5.43S413.63,163.81,413.91,163.94z"/>
		</g>
		<path class="st36" d="M409.19,179.39c0,0-5.82,19.09-4.66,28.23l2.15,3.9l2.35-4.26c0,0-1.91-18.28,1.74-27.56L409.19,179.39z"/>
		<path class="st37" d="M408.78,177.77l0.03,0.25c0.06,0.47,0.18,0.94,0.37,1.37l0,0l1.58,0.32l1.37-1.02l-1.57-1.83l-0.24,0.06
			c-0.56,0.14-1.08,0.43-1.51,0.82L408.78,177.77z"/>
		<path class="st38" d="M416.92,173.39c0,0,0.76,0.42,1.51,1.55c0,0-1.03,0.46-1.93,1.01c-0.82,0.5-4.77,3.29-4.77,3.29l-1.16-2.39
			C410.56,176.86,414.69,174.02,416.92,173.39z"/>
		<path class="st38" d="M410.56,176.86c0,0-1.38,0.47-1.81,1.51c0,0-0.71-1.35,0.2-3.77c0,0,0.76-0.72,1.34-0.97L410.56,176.86z"/>
	</g>
	<g>
		<g>
			<path class="st33" d="M388.17,309.54c0,1.05,13.8,1.9,30.83,1.9c17.02,0,30.83-0.85,30.83-1.9c0-1.05-13.8-1.9-30.83-1.9
				C401.98,307.64,388.17,308.49,388.17,309.54z"/>
		</g>
	</g>
	<g>
		<path class="st32" d="M404.41,303.47c0,0-0.55,1.4-0.48,2.32c0.07,0.92,3.01,0.99,3.35,0.51c0.34-0.48,0.51-4.72,0.51-4.72"/>
		<path class="st39" d="M408.06,307.13c0,0.96-0.27,2.53-0.27,2.53h-3.39l-0.17-0.57c0,0-1.1,0.57-1.96,0.57h-2.86
			c-2.09,0-3.28-0.27-3.33-0.63c-0.22-1.54,2.28-1.47,2.93-1.47c1.87,0,3.89-0.88,4.33-1.82c0.32-0.69,0.18-0.86,0.57-0.73
			c0,0,0.35,0.07,0.58,0.5c0.36,0.65,1.03,1.09,1.77,0.96c0.42-0.07,0.84-0.23,1.14-0.55C407.4,305.91,408.06,306.16,408.06,307.13z
			"/>
	</g>
	<g>
		<path class="st32" d="M437.37,300.28c0,0,0.63,2.48,1.03,3.31c0.41,0.83,3.16-0.19,3.3-0.76c0.14-0.57-1.27-4.57-1.27-4.57"/>
		<path class="st39" d="M442.73,303.3c0.36,0.89,0.88,2.63,0.88,2.63l-2.57,1.53l-0.5-0.38c0,0-0.57,0.92-1.35,1.41
			c-0.58,0.37-1.87,0.9-2.54,1.05c-2.35,0.54-4.16,0.28-4.34-0.05c-0.78-1.35,2.33-2.09,2.94-2.33c1.74-0.69,2.53-2.38,2.59-3.42
			c0.04-0.76-0.15-0.87,0.25-0.89c0,0,0.35-0.06,0.72,0.25c0.57,0.48,1.36,0.63,2,0.24c0.36-0.22,0.69-0.53,0.86-0.94
			C441.67,302.4,442.37,302.4,442.73,303.3z"/>
	</g>
	<g>
		<path class="st36" d="M425.47,234.2c0,0,4.6-11.02-3.43-19.03c0,0-6.85,3.07-12.34,3.44c-4.32,0.29-6.51-0.16-6.51-0.16
			s-0.97,8.02-0.44,20.6L425.47,234.2z"/>
		<path class="st36" d="M408.2,304.54c-0.14,0.01-0.28,0.01-0.41,0.01c-2.86,0.03-4.48-0.31-4.48-0.31v-0.82
			c0.16-12.62-1.37-33.24-1.67-39.76c-0.02-0.46-0.01-0.87,0.04-1.25c0.5-4.77,5.43-4.15,7.5,0.24c0.49,1.02,0.87,2.15,1.17,3.37
			c0.37,1.47,0.62,3.07,0.76,4.76C412.08,281.67,409.04,296.4,408.2,304.54z"/>
		<path class="st36" d="M416.75,239.29c-0.02,0.13-0.05,0.27-0.08,0.41c-1.09,5.74-4.63,21.27-6.32,26.31v0.01
			c-0.25,0.7-1.09,1.3-2.17,1.59c-2.48,0.67-6.18-0.25-6.5-5.2c-0.04-0.55-0.03-1.14,0.02-1.79c0.33-4.02,1.21-26.22,1.39-28.36
			c0.17-2.14,0.56-5.27,1.69-5.66C410.42,224.64,418.23,231.25,416.75,239.29z"/>
		<path class="st37" d="M411.11,270.78c0.96,10.89-2.07,25.62-2.92,33.76c-0.14,0.01-0.28,0.01-0.41,0.01c0,0,0.7-12.89,1.86-21.82
			c0.89-6.89-0.69-12.8-1.47-15.13c-0.23-0.69-0.39-1.07-0.39-1.07l1.39-3.89c1.55-5.06,1.59-16.86,1.59-16.86
			c-3.77-8.31-4.3-18.78-4.3-18.78l3.22,0.45l5.77,6.92l1.2,5.33c-1.09,5.74-4.63,21.27-6.32,26.31v0.01
			C410.72,267.48,410.96,269.08,411.11,270.78z"/>
		<path class="st37" d="M411.48,262.14c0,0-0.97,4.37-0.37,8.63c0.6,4.27-2.04-3.75-2.04-3.75l1.41-2.89L411.48,262.14z"/>
		<path class="st36" d="M427.99,262.32c-3.82-3.6-9.14-1.89-6.65,3.69c2.66,5.97,10.87,22.53,15.32,34.33l0.31,0.77
			c0,0,1.79-0.31,4.66-1.51c-2.12-7.66-3.66-20.87-8.06-30.07C432.15,266.57,429.98,264.18,427.99,262.32z"/>
		<g>
			<g>
				<path class="st36" d="M406.47,227c-0.74-8.87,10.32-2.98,15.62-0.05c2.23,1.23,3.05,3.7,3.35,6.02
					c0.3,2.32,3.17,26.24,3.74,30.6c1.3,9.84-7.29,4.46-8.11,1.73C419.03,258.43,406.87,231.84,406.47,227z"/>
			</g>
		</g>
		<path class="st36" d="M428.42,257.48c0,0,0.35,4.71,4.3,10.51c0,0-6.47-2.99-6.78-3.43c-0.31-0.44-1.44-5-1.32-5.48
			C424.75,258.6,428.42,257.48,428.42,257.48z"/>
	</g>
	<g>
		<path class="st32" d="M438.82,199.4c0,0.01,0,0.01-0.01,0.02c-0.09,0.36-0.59,0.64-1.18,0.87c-0.88,0.35-1.97,0.57-2.21,0.65
			c-2.14,0.78-10.48-9.78-12.38-12.48c-0.91-1.3-1.55-2.8-1.82-4.35c-0.19-1.05-0.2-2.13-0.03-3.2c0.27-1.69,0.98-3.24,2.62-3.65
			c0.01,0,0.01,0,0.02,0c0.61-0.15,1.23-0.09,1.78,0.14c0.62,0.25,1.17,0.7,1.54,1.3c2.5,4.05,9.11,13.58,10.47,16.86
			C437.81,196.03,438.78,197.91,438.82,199.4z"/>
		<path class="st2" d="M434.23,188.88c-2.11,1.31-5.6,4.34-6.95,5.53c-1.97-2.34-3.55-4.42-4.29-5.48c-0.92-1.3-1.9-1.9-2.16-3.46
			c-0.19-1.04,0.2-3.47,0.36-4.55c0.27-1.69,0.99-3.25,2.62-3.65c0.01,0,0.01,0,0.02,0c0.6-0.14,1.23-0.09,1.78,0.14
			c0.63,0.25,1.17,0.7,1.54,1.3C428.61,181.08,431.82,185.11,434.23,188.88z"/>
		<path class="st32" d="M437.68,211.24c-0.95,4.08-2.44,8.2-2.44,8.2l-1.19,0.27l-1.59-0.49c0,0,1.33-9.06,0.49-13.68
			c-0.36-1.99-0.5-9.19,2.25-9.49c0.35-0.03,0.66-0.01,0.95,0.05c0.07,0.02,0.14,0.03,0.21,0.06c1.65,0.49,2.28,2.32,2.39,2.67
			c0.03,0.19,0.06,0.39,0.07,0.58C439.3,203.39,438.55,207.45,437.68,211.24z"/>
	</g>
	<path class="st34" d="M404.88,155.72c0,0,7.08-1.41,10.44,2.87l4.95-2.32c0,0-1.32-1.53-1.52-1.66c-0.2-0.13-1.33-1.43-2.02-1.71
		c-0.69-0.29-3.58-1.22-3.95-1.28c-0.37-0.06-1.4-0.15-2.32,0.01c-0.92,0.16-1.34,0.39-1.81,0.61c-0.47,0.22-1.81,1.07-1.81,1.07
		L404.88,155.72z"/>
	<g>
		<path class="st32" d="M368.16,170.83c0,0-0.66-1.58-0.43-2.38c0.23-0.8,0.38-1.22,0.43-1.44c0.05-0.22,0.2-1.31,0.38-1.53
			c0.24-0.29,0.51-0.33,0.69-0.21c0.17,0.12-0.22,1.37-0.14,1.75c0.09,0.38,0.67,2,0.63,2.62
			C369.67,170.27,369.51,171.75,368.16,170.83z"/>
		<path class="st32" d="M369.68,169.57c-0.31-0.86-0.94-2.6-1.11-3.45c-0.18-0.86-1.9-3.47-2.25-3.61
			c-0.22-0.09-0.42,0.12-0.39,0.51c-0.22-0.32-0.46-0.57-0.68-0.64c-0.21-0.06-0.35,0.48-0.18,0.96c0.04,0.1,0.09,0.21,0.13,0.32
			c-0.16,0.12-0.27,0.52-0.1,1.07c0.13,0.4,0.33,0.69,0.54,0.97c-0.06,0.19-0.09,0.45-0.03,0.63c0.12,0.37,0.45,1.46,0.55,1.96
			c0.1,0.5-0.6,2.54,1.98,4.43c0.9,0.53,2.44,1.6,2.44,1.6l1.41-2.48C371.99,171.84,369.99,170.44,369.68,169.57z"/>
		<linearGradient id="SVGID_3_" gradientUnits="userSpaceOnUse" x1="369.7298" y1="166.8889" x2="367.9798" y2="169.8766">
			<stop  offset="0" style="stop-color:#F15A29"/>
			<stop  offset="1" style="stop-color:#F7941E;stop-opacity:0.0308"/>
		</linearGradient>
		<path class="st40" d="M367.92,171.33c0,0-0.86-1.08-0.19-2.88c0.29-0.78,0.38-1.22,0.43-1.44c0.05-0.22,0.2-1.31,0.38-1.53
			c0.24-0.29,0.51-0.33,0.69-0.21c0.17,0.12-0.22,1.37-0.14,1.75c0.09,0.38,0.67,2,0.63,2.62
			C369.67,170.27,369.27,172.24,367.92,171.33z"/>
	</g>
	<g>
		<path class="st41" d="M432.37,225.39c0,0-1.22,1.06-1.44,1.23c-0.22,0.17-0.28,0.86-0.28,0.86l1.35-0.57l0.37-0.84V225.39z"/>
		<path class="st41" d="M432.64,224.36c0,0-1.05,0.96-1.24,1.2c-0.19,0.24-0.32,0.94-0.32,0.94l1.29-0.22c0,0,0.3-0.34,0.35-0.5
			C432.77,225.63,432.64,224.36,432.64,224.36z"/>
		<path class="st32" d="M435.24,219.45l-0.13-0.51l-0.9-0.38l-1.75,0.68l-0.76,1.38c-0.33,0.39-0.83,1.1-0.83,1.1l0,0
			c-0.24,0.26-0.4,0.57-0.67,1.04c-0.25,0.44-0.62,0.94-0.53,1.11c0.08,0.16,0.51,0.2,0.75,0c0.04-0.03,0.07-0.06,0.11-0.12
			c0.01,0.01,0.01,0.01,0.01,0.02c0.18-0.23,0.32-0.57,0.83-0.74c0.1-0.03,0.18-0.08,0.27-0.12c0,0.01,0,0.02,0,0.02
			s0.56-0.23,0.88,0.39c0.04,0.11,0.08,0.22,0.09,0.34c0.02,0.39-0.46,1.83-0.55,2.22c-0.09,0.39-1.37,1.19-1.67,1.57
			c-0.3,0.38-0.15,0.77-0.07,0.81c0.09,0.04,0.2,0.04,0.29,0c0.09-0.04,1.96-1.36,2.15-1.5c0.03-0.02,0.14-0.15,0.18-0.25
			c0.01,0,0.01-0.01,0.02-0.01c0.39-0.22,0.87-0.49,0.96-0.64c0.18-0.23,0.84-1.62,0.95-2.22c0.02-0.05,0.1-0.21,0.1-0.25
			c0-0.32,0.01-2.08,0.07-3.33C435.16,219.69,435.24,219.45,435.24,219.45z"/>
		<path class="st41" d="M434.88,223.63c-0.11,0.59-0.78,1.98-0.95,2.22c-0.1,0.14-0.57,0.42-0.96,0.64l-0.01-0.01
			c0,0,1.23-1.77,1.58-2.34C434.78,223.71,434.85,223.64,434.88,223.63z"/>
		<path class="st32" d="M432.62,217.97c0,0-0.27,1.46-0.51,1.88c-0.23,0.42,0.71,0.54,0.71,0.54l0.39-1.52L432.62,217.97z"/>
	</g>
	<g>
		<path class="st42" d="M415.74,159.9c0.02-0.09,0.05-0.2,0.04-0.26c-0.06-0.62-3.05-4.19-9.01-3.86c-0.64,0.04-1.22,0.41-1.49,1
			c-0.53,1.13-1.31,2.62-1.27,4.21c0,0-0.28,0.36-0.15,0.74c0.06,0.19,0.2,0.59,0.21,0.67c0.01,0.11,0.27,0.36,0.27,0.36
			s0.02-0.52,0.9-0.72c1.19-0.21,3.47-0.28,5.99,1.33c0.85,0.54,1.52,1.29,2.06,1.12c0.36-0.11,0.74-0.7,1.03-1.26
			c0.14-0.26,0.45-0.36,0.7-0.22c1.5,0.82,4.04,2.4,5.4,4.39c0,0,1.38-0.89,1.5-2.69C421.93,164.7,420.23,161.16,415.74,159.9z"/>
		<path class="st43" d="M413.51,157.08c-0.4-0.31-2.4-1.3-5.13-1.51c-1.48-0.11-3.11,0.09-3.32,0.53c0,0-1.03,1.75-1.36,4.28
			c-0.06,0.43,0.13,1.19,0.13,1.19c0-0.23,0.05-0.41,0.15-0.5c0.1-0.09,0.24-0.1,0.24-0.1c0.95-0.05,5.17-0.2,6.89,0.94
			c1.94,1.29,1.76,1.2,1.95,1.08c0.19-0.12,1.76-3.34,1.94-4.11C415.16,158.1,414.02,157.47,413.51,157.08z"/>
	</g>
</g>
<g>
	<g>
		<path class="st33" d="M451.56,309.69c0,0.97,7.52,1.76,16.8,1.76c9.28,0,16.8-0.79,16.8-1.76c0-0.97-7.52-1.76-16.8-1.76
			C459.08,307.93,451.56,308.72,451.56,309.69z"/>
	</g>
	<path class="st32" d="M457.31,246.45c0,0-6-11.49,0.21-20.86c0,0,6.36,2.84,11.44,3.19c4.01,0.27,6.04-0.14,6.04-0.14
		s0.9,7.44,0.41,19.11L457.31,246.45z"/>
	<g>
		<path class="st32" d="M464.37,245.09c0.01,0.12,0.03,0.24,0.04,0.38c0.25,2.62,1.43,9.97,2.29,15.09c0.51,3.08,0.9,5.37,0.9,5.37
			s0.38,2.16,0.55,3.02c0.18,1.49,0.28,3.35,0.02,5.16c-0.05,0.39-0.08,0.87-0.08,0.88c-0.45,5.06,0.06,10.82,0.78,16.26
			c0,0.01,0,0.01,0,0.02c0.72,5.43,1.66,10.54,2.04,14.31c0.12,0.01,1.94-0.26,1.94-0.26s3.32-31,3.59-37.04
			c0.02-0.42,0.01-0.78-0.03-1.13c0.03-0.35,0.06-0.7,0.06-1.09c0.04-3.74,1.05-31.24,0.03-31.69
			C471.46,232.1,463.69,237.55,464.37,245.09z"/>
		<path class="st39" d="M473.6,304.55c0,0,3.01,2.46,6.27,3.76c0.3,0.12,0.36,0.56,0.07,0.7c-1.29,0.65-5.73-0.29-7.04-1.05
			c-0.29,0.69-0.53,1.25-0.53,1.25h-1.56c0,0-1.31-2.62,0-4.6"/>
		<path class="st32" d="M471.12,304.61l1.03-1.38l1-0.75c0,0,0.22,1.8,1.06,2.51l0,0c0.46,0.34,0.9,0.68,1.61,1.15
			c0,0,0.04,0.36-0.54,0.43c-0.4,0.05-1.38-0.13-2.1-0.87l0,0.02c0,0-0.03-0.04-0.07-0.09c-0.06-0.06-0.12-0.13-0.17-0.2
			C472.62,305.1,471.98,304.56,471.12,304.61z"/>
	</g>
	<path class="st44" d="M468.14,268.96c0.18,1.49,0.28,3.35,0.02,5.16c-0.05,0.39-0.08,0.87-0.08,0.88
		c-0.45,5.06,0.06,10.82,0.78,16.26c-0.22-4.42-0.02-15.53,0.27-18.49c0.3-2.97-0.55-4.16-0.46-5.26c0.09-1.1,1.73-5.81,1.73-5.81
		l-3.71-1.14c0.51,3.08,0.9,5.37,0.9,5.37S467.97,268.09,468.14,268.96z"/>
	<g>
		<g>
			<path class="st32" d="M466.53,271.19c-2.83,5.96-9.68,25.71-12.03,32.83c-0.04-0.01-1.43-0.21-1.99-0.34
				c0-0.08,0.87-29.51,6.6-36.33C462.6,263.2,469.57,264.79,466.53,271.19z"/>
			<path class="st32" d="M472.37,243.77c0.72-8.56-2.55-15.21-7.67-12.38c-2.15,1.19-4.81,3.21-4.66,5.46
				c0.26,3.93-0.44,25.88-1,30.09c-1.25,9.49,6.79,6.79,7.58,4.16C468.6,264.47,471.98,248.43,472.37,243.77z"/>
		</g>
	</g>
	<g>
		<path class="st32" d="M469.81,189.17c0.07,0.44,0.3,0.83,0.62,1.13c0.35,0.34,0.84,0.58,1.37,0.67c1.38,0.22,2.87,0.11,5.12,0.54
			c3.62,0.68,7.32,1.39,8.98,1.65c0.94,0.15,2.8,0.46,3.87,0.12c0.03,0,0.06-0.01,0.09-0.02c0.01-0.01,0.01-0.01,0.02-0.01
			c0.26-0.18,0.31-0.72,0.27-1.26c-0.03-0.59-0.16-1.19-0.16-1.34c-0.06-1.59-1.46-2.21-2.15-2.42c-0.22-0.07-8.39-2.19-10.85-2.74
			c-1.19-0.27-1.88,0-3.05,0.22c-0.8,0.15-1.58,0.42-2.29,0.8C470.53,187.14,469.62,188,469.81,189.17z"/>
		<path class="st32" d="M486.62,191.75c0.07,0.24,0.18,0.44,0.31,0.62c0.06,0.08,0.13,0.16,0.19,0.22c0.83,0.85,2.21,0.79,2.46,0.77
			l0.01,0c0.1-0.02,0.2-0.05,0.31-0.08c0.03-0.01,0.07-0.02,0.11-0.04c2.22-0.71,13.6-7.9,13.6-7.9l-0.14-0.23l-0.92-1.45
			c0,0-7.27,2.46-10.63,3.32c-1.48,0.37-2.92,0.71-3.93,1.2c-0.13,0.06-0.25,0.12-0.37,0.19
			C487.62,188.39,486.03,189.86,486.62,191.75z"/>
	</g>
	<path class="st39" d="M455.15,304.07c0,0,1.57,1.99,3.71,3.81c0.87,0.44,1.31,0.84,1.6,1.23c0.19,0.26,0.23,0.62-0.08,0.7
		c-0.55,0.14-1.88,0.25-2.92-0.11c-1.62-0.56-3.05-1.82-3.73-2.44c-0.43,0.61-0.79,1.11-0.79,1.11l-1.52-0.34
		c0,0-0.6-2.84,1.11-4.49"/>
	<path class="st32" d="M452.64,303.55l1.37-1.08l1.23-0.7c0,0-0.5,1.51,0.4,2.87l0,0c0.38,0.43,0.73,0.86,1.33,1.47
		c0,0-0.04,0.36-0.63,0.31c-0.4-0.04-1.32-0.42-1.86-1.31l0,0.02c0,0-0.02-0.05-0.05-0.11c-0.04-0.08-0.09-0.15-0.12-0.23
		C454.07,304.39,453.5,303.68,452.64,303.55z"/>
	<path class="st36" d="M454.46,238.99c0.56,1.82,1.85,8.87,2.17,10.74c0.82,4.81,1.29,8.2,2.06,12.48c0,0,0.44,0.03,1.2,0.08
		c0.16,0.02,0.34,0.03,0.53,0.04c1.88,0.11,5.07,0.26,8.26,0.23h0.03c2.43-0.02,4.86-0.15,6.74-0.5c0.68-0.12,1.28-0.26,1.79-0.45
		c0,0,0.81-9.46-0.43-38.3c0,0-13.93-2.44-19.78-0.82h-0.01c-0.2,0.06-0.41,0.12-0.59,0.19
		C456.44,222.7,451.89,230.72,454.46,238.99z"/>
	<path class="st45" d="M467.81,158.93c0,0,4.1-0.08,4.99,2.76c0.89,2.84-0.66,5.38-0.66,5.38"/>
	<path class="st37" d="M454.46,238.99c0.56,1.82,1.85,8.87,2.17,10.74c0.82,4.81,1.29,8.2,2.06,12.48c0,0,0.44,0.03,1.2,0.08
		c-0.77-7.48-4.59-24.29-4.27-29.49c0.34-5.69,2.62-9.21,2.62-9.21l-1.21-1.1h-0.01c-0.2,0.06-0.41,0.12-0.59,0.19
		C456.44,222.7,451.89,230.72,454.46,238.99z"/>
	<path class="st2" d="M477.08,223.38c-0.13,0.6-1.03,0.85-1.03,0.85s-1.66,0.51-4.16,0.9l-0.21,0.03c-3.83,0.57-9.52,0.8-14.32-1.43
		c-0.46-0.2-0.89-0.44-1.33-0.69c-0.96-0.57,3.43-7.15-0.34-22.37c-0.6-2.43-1.17-4.68-1.45-6.72c-0.39-2.81-0.25-5.24,1.05-7.29
		c0.21-0.34,1.17-2.11,1.48-2.41c2.4-2.39,7.3-4.05,12.45-2.99c1.14,0.23,2.09,0.75,2.73,1.13c0.76,0.45,0.99,2.68,2.2,4.56
		c1.35,2.09,1.48,16.37,1.9,26.41C476.28,218.97,477.13,223.17,477.08,223.38z"/>
	<path class="st33" d="M463.97,212.54c0,0-3.88-0.05-4.29,0.56c-0.42,0.6-1.33,7.12-1.5,8.23c-0.08,0.54-0.46,1.52-0.82,2.4
		c-0.46-0.2-0.89-0.44-1.33-0.69c-0.96-0.57,3.43-7.15-0.34-22.37c-0.6-2.43-1.17-4.68-1.45-6.72l2.18-2.44l2.96-1.24
		c0,0,0.76,0.91-0.94,7.34c-0.74,2.79-0.18,5.27,0.48,9.64c0.66,4.37,2.23,4.22,2.23,4.22L463.97,212.54z"/>
	<path class="st32" d="M457.6,169.11c0.13,4.99,3.57,8.07,3.57,8.07l0.57,4.35l2.9,1.88l1.99,1.29l1.14-2.39l0.16-2.93
		c0.04-0.68,0.53-1.25,1.2-1.39c0.74-0.16,1.78-0.59,2.83-1.71c0.06-0.07,0.13-0.14,0.18-0.22c0.01,0,0.01,0,0.01,0
		c1.89-2.57,2.6-12.42-3.86-15.21C461.63,157.95,457.47,164.11,457.6,169.11z"/>
	<path class="st35" d="M464.84,180.69l-0.2,2.72l1.99,1.29l1.14-2.39l0.16-2.93c0.04-0.68,0.53-1.25,1.2-1.39
		c0.74-0.16,1.78-0.59,2.83-1.71c0.06-0.07,0.13-0.14,0.18-0.22c-0.13,0.08-1.69,0.99-4.06,1.26
		C466.33,177.51,464.96,178.93,464.84,180.69z"/>
	<path class="st46" d="M468.68,262.56h0.03c2.43-0.02,4.86-0.15,6.74-0.5c-0.53-0.37-1.12-0.79-1.73-1.29
		c-2.32-1.91-3.65-13.36-4.04-11.96C469.3,250.22,468.68,262.56,468.68,262.56z"/>
	<path class="st45" d="M456.98,165.8c0,0-5.14-0.28-6.17-3.35c-1.03-3.07,1.6-6.24,4.44-5.72c2.51,0.47,3.76,1.75,4.76,4.71"/>
	<path class="st32" d="M454.12,187.82c-0.45-0.01-0.87,0.14-1.23,0.4c-0.4,0.28-0.73,0.72-0.92,1.22c-0.48,1.32-0.64,2.8-1.48,4.94
		c-1.34,3.43-2.73,6.94-3.29,8.52c-0.32,0.89-0.97,2.67-0.84,3.78c0,0.03,0,0.06,0,0.1c0,0.01,0,0.01,0.01,0.02
		c0.13,0.29,0.65,0.43,1.19,0.49c0.58,0.08,1.2,0.07,1.35,0.09c1.58,0.23,2.45-1.03,2.78-1.66c0.11-0.21,3.72-7.83,4.71-10.16
		c0.48-1.12,0.35-1.84,0.35-3.04c0-0.82-0.12-1.63-0.36-2.4C455.99,188.9,455.31,187.85,454.12,187.82z"/>
	<path class="st32" d="M446.54,205.5c-0.11,0.22-0.17,0.45-0.19,0.66c-0.01,0.1-0.01,0.2-0.01,0.29c0.03,1.19,1.08,2.08,1.28,2.24
		l0.01,0.01c0.09,0.05,0.18,0.1,0.28,0.16c0.03,0.01,0.07,0.03,0.1,0.05c2.11,0.99,15.35,3.44,15.35,3.44l0.05-0.26l0.31-1.69
		c0,0-7.01-3.13-10.06-4.79c-1.34-0.73-2.62-1.46-3.7-1.79c-0.14-0.04-0.27-0.08-0.4-0.11C449.56,203.71,447.39,203.72,446.54,205.5
		z"/>
	<path class="st2" d="M453.92,185.13c-2.3,1.86-3.66,6.17-4.12,9.75l6.59,2.1c0,0,5.51-8.39,2.1-11.57
		C457.12,184.14,455.72,183.67,453.92,185.13z"/>
	<path class="st2" d="M462.44,181.98c0,0,3.1,1.23,5.39-0.46c1.78-1.32,0.91,3.18,0.91,3.18l-1.91,0.84c0,0-2.59-1.02-2.67-1.14
		C464.07,184.28,462.44,181.98,462.44,181.98z"/>
	<g>
		<path class="st32" d="M504.93,183.75c0,0,0.7-0.96,0.68-1.54c-0.02-0.58-0.06-0.88-0.06-1.04c0-0.16,0.08-0.92-0.01-1.09
			c-0.12-0.23-0.3-0.3-0.43-0.25c-0.14,0.05-0.07,0.96-0.19,1.2c-0.12,0.24-0.78,1.24-0.85,1.67
			C504,183.13,503.87,184.16,504.93,183.75z"/>
		<path class="st32" d="M504.1,182.66c0.35-0.53,1.05-1.61,1.3-2.16c0.26-0.55,1.84-2.04,2.1-2.08c0.17-0.02,0.26,0.15,0.18,0.4
			c0.2-0.18,0.4-0.32,0.57-0.32c0.15,0,0.16,0.38-0.03,0.68c-0.04,0.06-0.09,0.13-0.14,0.19c0.09,0.11,0.1,0.4-0.1,0.74
			c-0.15,0.25-0.33,0.41-0.52,0.57c0.01,0.13-0.01,0.32-0.08,0.43c-0.14,0.23-0.54,0.91-0.68,1.24c-0.15,0.32,0,1.81-2.05,2.68
			c-0.69,0.21-1.91,0.69-1.91,0.69l-0.55-1.9C502.18,183.82,503.75,183.2,504.1,182.66z"/>
		
			<linearGradient id="SVGID_4_" gradientUnits="userSpaceOnUse" x1="484.8919" y1="184.2811" x2="483.6757" y2="186.3576" gradientTransform="matrix(-0.973 -0.2309 -0.2309 0.973 1018.8479 113.4915)">
			<stop  offset="0" style="stop-color:#F15A29"/>
			<stop  offset="1" style="stop-color:#F7941E;stop-opacity:0.0308"/>
		</linearGradient>
		<path class="st47" d="M505.01,184.13c0,0,0.75-0.59,0.59-1.92c-0.07-0.58-0.06-0.88-0.06-1.04c0-0.16,0.08-0.92-0.01-1.09
			c-0.12-0.23-0.3-0.3-0.43-0.25c-0.14,0.05-0.07,0.96-0.19,1.2c-0.12,0.24-0.78,1.24-0.85,1.67
			C504,183.13,503.95,184.53,505.01,184.13z"/>
	</g>
	<path class="st48" d="M471.05,163.24c-0.49,0.77-1.57,0.99-2.73,0.95c-2.72-0.08-4.95,2.12-4.71,4.82
		c0.01,0.11,0.02,0.22,0.04,0.34c0.06,0.53,0.15,1.15,0.24,1.8c0,0,0,0.04,0.01,0.11c0.02,0.42,0.05,1.82-0.85,0.95
		c-1.06-1.02-0.85-4.64-2.46-3.39c-2.04,1.58,0.57,8.37,0.57,8.37c-4.27-0.43-5.72-4.64-5.72-9.25c0-4.61,5.91-13.7,14.18-8.42
		C469.62,159.51,472.35,161.2,471.05,163.24z"/>
	<path class="st2" d="M480.55,186.22c0,0-0.05,2.5-0.79,4.87c-0.1,0.34-0.22,0.68-0.36,1.01c0,0-2.95,0.12-6.32-1.28l-1.01-1.92
		l-1.18-2.24l-1.25-2.82c0,0-2.16-2.72-0.7-2.63c1.46,0.08,4.93,1.13,4.93,1.13S477.47,183.55,480.55,186.22z"/>
	<path class="st33" d="M479.75,191.09c-0.1,0.34-0.22,0.68-0.36,1.01c0,0-2.95,0.12-6.32-1.28l-1.01-1.92
		c0.01-0.01,0.02-0.01,0.02-0.02c0.95-0.64,2.21-0.57,3.09,0.17c0.23,0.19,0.47,0.4,0.71,0.61
		C476.75,190.42,478.8,190.9,479.75,191.09z"/>
	<polygon class="st2" points="454.58,184.67 459.27,182.48 460.13,185.55 456.78,186.86 	"/>
	<path class="st2" d="M473.06,187.29c0,0,2.57,3.33,3.37,5.53c0.8,2.2,0.11,4.3-0.83,7.96c-0.94,3.66-5.55-6.63-5.55-6.63v-3.98
		L473.06,187.29z"/>
	<g>
		<path class="st42" d="M462.88,168.47c-0.02-0.09-0.04-0.18-0.04-0.24c0.05-0.57,2.83-3.88,8.36-3.58c0.6,0.03,1.13,0.38,1.38,0.92
			c0.49,1.04,1.22,2.43,1.18,3.9c0,0,0.26,0.33,0.14,0.69c-0.06,0.18-0.18,0.55-0.19,0.62c-0.01,0.1-0.25,0.33-0.25,0.33
			s-0.02-0.48-0.84-0.67c-1.1-0.19-3.22-0.26-5.56,1.23c-0.78,0.5-1.41,1.19-1.91,1.03c-0.33-0.11-0.68-0.65-0.96-1.17
			c-0.13-0.24-0.41-0.33-0.65-0.2c-1.39,0.76-4.28,2.63-5.54,4.47c0,0-1.47-0.63-1.58-2.3
			C456.42,173.52,458.72,169.64,462.88,168.47z"/>
		<path class="st43" d="M464.95,165.86c0.37-0.29,2.22-1.21,4.76-1.4c1.37-0.1,2.88,0.08,3.08,0.49c0,0,0.96,1.62,1.26,3.97
			c0.06,0.4-0.12,1.1-0.12,1.1c0-0.21-0.05-0.38-0.14-0.47c-0.09-0.09-0.22-0.09-0.22-0.09c-0.88-0.05-4.8-0.19-6.39,0.87
			c-1.8,1.19-1.64,1.11-1.81,1c-0.17-0.11-1.64-3.1-1.8-3.81C463.42,166.8,464.48,166.22,464.95,165.86z"/>
	</g>
	<path class="st32" d="M469.91,214.15c-0.09,0.09-0.26,0.04-0.36,0c-0.02-0.01-0.03-0.02-0.05-0.03c-0.02,0-0.03-0.01-0.03-0.01
		c-0.14-0.1-0.27-0.19-0.27-0.19s-0.03,0.1-0.17,0.11c-0.09,0-0.25-0.08-0.38-0.14c-0.02-0.01-0.05-0.03-0.08-0.05
		c-0.02-0.01-0.03-0.02-0.03-0.02c-0.28-0.2-0.61-0.41-0.98-0.56c-1.81-0.08-4.2-0.91-4.2-0.91l-0.17-2.2c0,0,0.47,0.27,1.04,0.37
		c0.57,0.1,2.54-0.25,3.17,0C468.03,210.76,470.52,212.71,469.91,214.15z"/>
	<path class="st32" d="M465.27,210.5c0,0,0.24-0.12,0.64-0.17c0.4-0.05,1.59-0.16,1.92-0.18c0.33-0.02,0.73-0.12,0.81-0.06
		c0.08,0.06,0.03,0.33-0.09,0.42c-0.06,0.04-0.26,0.23-0.83,0.36C467.16,210.99,465.27,210.5,465.27,210.5z"/>
</g>
</svg>
